<svg xmlns="http://www.w3.org/2000/svg" viewBox="0 0 1200 630">
  <defs>
    <linearGradient id="bg" x1="0" y1="0" x2="1" y2="1">
      <stop offset="0" stop-color="#0a0a12"/>
      <stop offset="1" stop-color="#0f1830"/>
    </linearGradient>
    <linearGradient id="accent" x1="0" y1="0" x2="1" y2="0">
      <stop offset="0" stop-color="#60a5fa"/>
      <stop offset="1" stop-color="#3b82f6"/>
    </linearGradient>
    <radialGradient id="glow" cx="0.8" cy="0.2" r="0.6">
      <stop offset="0" stop-color="#3b82f6" stop-opacity="0.25"/>
      <stop offset="1" stop-color="#3b82f6" stop-opacity="0"/>
    </radialGradient>
  </defs>
  <rect width="1200" height="630" fill="url(#bg)"/>
  <rect width="1200" height="630" fill="url(#glow)"/>
  <text x="90" y="200" font-family="Inter, sans-serif" font-size="120" font-weight="800" fill="#fff">NEX<tspan fill="url(#accent)">IA</tspan></text>
  <text x="92" y="290" font-family="Inter, sans-serif" font-size="44" font-weight="600" fill="#cbd5e1">Webs, Chatbots e IA para tu negocio</text>
  <text x="92" y="360" font-family="Inter, sans-serif" font-size="32" font-weight="400" fill="#94a3b8">Diagnóstico web gratuito en 24h</text>
  <rect x="92" y="420" width="430" height="72" rx="14" fill="url(#accent)"/>
  <text x="307" y="466" font-family="Inter, sans-serif" font-size="30" font-weight="700" fill="#06122e" text-anchor="middle">Programa Fundador · 50% dto</text>
  <g opacity="0.9">
    <rect x="780" y="160" width="340" height="220" rx="16" fill="#0f1730" stroke="#1e3a8a" stroke-width="2"/>
    <rect x="780" y="160" width="340" height="40" rx="16" fill="#16213f"/>
    <circle cx="804" cy="180" r="6" fill="#ef4444"/><circle cx="824" cy="180" r="6" fill="#f59e0b"/><circle cx="844" cy="180" r="6" fill="#22c55e"/>
    <rect x="804" y="224" width="180" height="14" rx="7" fill="#334155"/>
    <rect x="804" y="252" width="290" height="14" rx="7" fill="#334155"/>
    <rect x="804" y="280" width="240" height="14" rx="7" fill="#334155"/>
    <rect x="804" y="320" width="140" height="36" rx="10" fill="url(#accent)"/>
  </g>
</svg>
